<svg xmlns="http://www.w3.org/2000/svg" viewBox="0 0 120 40">
  <!-- Left bracket -->
  <path 
    d="M5 8L15 8L15 12L10 12L10 28L15 28L15 32L5 32L5 28L8 28L8 12L5 12Z" 
    fill="#4fd1c5"
  />
  
  <!-- SA letters in a bold, Nike-like slant -->
  <path 
    d="M25 12C25 10 35 10 35 14C35 18 20 16 20 22C20 26 30 26 30 22" 
    fill="none" 
    stroke="#4fd1c5" 
    stroke-width="4" 
    stroke-linecap="round"
  />
  
  <path 
    d="M40 22L50 12L60 22M44 19H56" 
    fill="none" 
    stroke="#4fd1c5" 
    stroke-width="4" 
    stroke-linecap="round"
  />
  
  <!-- Right bracket -->
  <path 
    d="M70 8L80 8L80 12L77 12L77 28L80 28L80 32L70 32L70 28L75 28L75 12L70 12Z" 
    fill="#4fd1c5"
  />
  
  <!-- Code dot accents -->
  <circle cx="92" cy="14" r="2" fill="#4fd1c5" opacity="0.6"/>
  <circle cx="92" cy="20" r="2" fill="#4fd1c5" opacity="0.6"/>
  <circle cx="92" cy="26" r="2" fill="#4fd1c5" opacity="0.6"/>
</svg>